<?xml version="1.0" encoding="UTF-8"?>
<svg xmlns="http://www.w3.org/2000/svg" viewBox="0 0 2400 800" role="img" aria-label="GoFoot — open source football manager">
  <title>GoFoot</title>
  <desc>GoFoot horizontal lockup: emblem on the left, "GoFoot" wordmark on the right.</desc>

  <!-- ===== Emblem (re-used from logo.svg, translated and scaled) ===== -->
  <g transform="translate(0 0) scale(0.8)">
    <g id="field">
      <circle cx="500" cy="500" r="472" fill="none" stroke="#0a8f4a" stroke-width="38"/>
      <line x1="500" y1="50" x2="500" y2="950" stroke="#0a8f4a" stroke-width="22"/>
      <circle cx="500" cy="500" r="118" fill="none" stroke="#0a8f4a" stroke-width="18"/>
    </g>
    <g transform="translate(500 500)">
      <circle cx="0" cy="0" r="92" fill="#0a8f4a" stroke="#0a8f4a" stroke-width="3"/>
      <polygon points="0,-32 30,-10 19,28 -19,28 -30,-10" fill="#086a39"/>
      <g fill="#f5d35e" stroke="#0a8f4a" stroke-width="2">
        <polygon points="0,-78 38,-56 38,-12 0,10 -38,-12 -38,-56"/>
        <polygon points="56,-26 94,-4 94,40 56,62 18,40 18,-4"/>
        <polygon points="36,40 74,62 74,106 36,128 -2,106 -2,62"/>
        <polygon points="-36,40 2,62 2,106 -36,128 -74,106 -74,62"/>
        <polygon points="-56,-26 -18,-4 -18,40 -56,62 -94,40 -94,-4"/>
      </g>
    </g>
    <g id="letter-g" fill="#0a8f4a">
      <rect x="100" y="270" width="350" height="55"/>
      <rect x="100" y="270" width="55" height="455"/>
      <rect x="100" y="670" width="350" height="55"/>
      <rect x="395" y="270" width="55" height="225"/>
      <rect x="395" y="670" width="55" height="55"/>
      <rect x="155" y="325" width="55" height="120"/>
      <rect x="155" y="445" width="200" height="55"/>
      <rect x="155" y="500" width="200" height="55"/>
      <rect x="155" y="555" width="55" height="115"/>
    </g>
    <g id="letter-f" fill="#c0392b">
      <rect x="550" y="270" width="350" height="55"/>
      <rect x="550" y="270" width="55" height="455"/>
      <rect x="550" y="470" width="220" height="55"/>
      <rect x="550" y="670" width="160" height="55"/>
      <polygon points="720,170 820,170 820,210 870,210 770,80 670,210 720,210"/>
      <polygon points="720,830 820,830 820,790 870,790 770,920 670,790 720,790"/>
    </g>
  </g>

  <!-- ===== Wordmark ===== -->
  <g transform="translate(900 400)">
    <text x="0" y="0"
          font-family="'Inter', 'Segoe UI', system-ui, -apple-system, 'Helvetica Neue', Arial, sans-serif"
          font-weight="900"
          font-size="320"
          letter-spacing="-12"
          fill="#0a8f4a">Go</text>
    <text x="430" y="0"
          font-family="'Inter', 'Segoe UI', system-ui, -apple-system, 'Helvetica Neue', Arial, sans-serif"
          font-weight="900"
          font-size="320"
          letter-spacing="-12"
          fill="#c0392b">Foot</text>
  </g>

  <!-- Tagline -->
  <text x="900" y="500"
        font-family="'Inter', 'Segoe UI', system-ui, -apple-system, 'Helvetica Neue', Arial, sans-serif"
        font-weight="500"
        font-size="48"
        letter-spacing="6"
        fill="#0a8f4a"
        opacity="0.85">OPEN-SOURCE FOOTBALL MANAGER</text>
</svg>
